<svg id="Capa_1" enable-background="new 0 0 512 512" height="512" viewBox="0 0 512 512" width="512" xmlns="http://www.w3.org/2000/svg"><g><path d="m135.373 352.09 2.929-2.928c2.93-2.928 2.93-7.677.002-10.606s-7.677-2.93-10.606-.001l-2.929 2.928c-2.93 2.928-2.93 7.677-.002 10.607 1.464 1.465 3.384 2.197 5.304 2.197 1.918 0 3.837-.733 5.302-2.197z"/><path d="m162.839 373.698-2.929 2.929c-2.929 2.93-2.929 7.678 0 10.607 1.464 1.464 3.384 2.196 5.303 2.196s3.839-.732 5.303-2.196l2.929-2.929c2.929-2.93 2.929-7.678 0-10.607-2.928-2.928-7.677-2.928-10.606 0z"/><path d="m106.087 381.376 2.929-2.929c2.929-2.93 2.929-7.678 0-10.607-2.929-2.928-7.678-2.928-10.606 0l-2.929 2.929c-2.929 2.93-2.929 7.678 0 10.607 1.464 1.464 3.384 2.196 5.303 2.196 1.92.001 3.839-.732 5.303-2.196z"/><path d="m133.553 402.984-2.929 2.929c-2.929 2.93-2.929 7.678 0 10.607 1.464 1.464 3.384 2.196 5.303 2.196 1.92 0 3.839-.732 5.303-2.196l2.929-2.929c2.929-2.93 2.929-7.678 0-10.607-2.929-2.928-7.678-2.928-10.606 0z"/><path d="m69.123 397.126-2.929 2.929c-2.929 2.93-2.929 7.678 0 10.607 1.464 1.464 3.384 2.196 5.303 2.196s3.839-.732 5.303-2.196l2.929-2.929c2.929-2.93 2.929-7.678 0-10.607-2.928-2.927-7.677-2.927-10.606 0z"/><path d="m104.266 432.271-2.928 2.929c-2.929 2.929-2.928 7.678.001 10.607 1.464 1.465 3.383 2.196 5.303 2.196s3.839-.733 5.304-2.197l2.928-2.929c2.929-2.929 2.928-7.678-.001-10.607-2.929-2.93-7.678-2.929-10.607.001z"/><path d="m402.43 81.927c1.919 0 3.839-.732 5.304-2.197l2.928-2.929c2.929-2.929 2.928-7.678-.001-10.606-2.929-2.93-7.678-2.929-10.606.001l-2.928 2.929c-2.929 2.929-2.928 7.678.001 10.606 1.464 1.465 3.383 2.196 5.302 2.196z"/><path d="m437.573 117.071c1.919 0 3.839-.732 5.303-2.196l2.929-2.929c2.929-2.93 2.929-7.678 0-10.607-2.929-2.928-7.678-2.928-10.607 0l-2.929 2.929c-2.929 2.93-2.929 7.678 0 10.607 1.465 1.463 3.385 2.196 5.304 2.196z"/><path d="m373.144 111.213c1.919 0 3.839-.732 5.303-2.196l2.929-2.929c2.929-2.93 2.929-7.678 0-10.607-2.929-2.928-7.678-2.928-10.607 0l-2.929 2.929c-2.929 2.93-2.929 7.678 0 10.607 1.465 1.464 3.385 2.196 5.304 2.196z"/><path d="m405.913 130.624-2.929 2.929c-2.929 2.93-2.929 7.678 0 10.607 1.464 1.464 3.384 2.196 5.303 2.196s3.839-.732 5.303-2.196l2.929-2.929c2.929-2.93 2.929-7.678 0-10.607-2.929-2.927-7.678-2.927-10.606 0z"/><path d="m343.858 140.499c1.919 0 3.839-.732 5.303-2.196l2.929-2.929c2.929-2.93 2.929-7.678 0-10.607-2.929-2.928-7.678-2.928-10.606 0l-2.929 2.929c-2.929 2.93-2.929 7.678 0 10.607 1.464 1.464 3.383 2.196 5.303 2.196z"/><path d="m387.234 159.912c-2.928-2.93-7.677-2.929-10.607-.001l-2.929 2.928c-2.93 2.928-2.93 7.677-.002 10.606 1.464 1.465 3.384 2.197 5.304 2.197 1.919 0 3.838-.732 5.302-2.196l2.929-2.928c2.931-2.928 2.931-7.677.003-10.606z"/><path d="m296.046 144.868c-4.439-4.439-10.34-6.884-16.618-6.884-6.277 0-12.179 2.444-16.617 6.883l-117.944 117.945c-4.439 4.439-6.883 10.34-6.883 16.617s2.445 12.179 6.883 16.617l71.087 71.087c4.439 4.439 10.34 6.884 16.618 6.884 6.277 0 12.179-2.444 16.617-6.883l117.945-117.945c4.438-4.438 6.883-10.34 6.883-16.617s-2.445-12.179-6.883-16.617zm60.481 93.714-117.946 117.946c-1.605 1.605-3.74 2.489-6.01 2.489s-4.405-.884-6.011-2.49l-71.087-71.088c-1.605-1.605-2.49-3.739-2.49-6.01s.884-4.404 2.49-6.01l117.946-117.946c1.605-1.605 3.74-2.489 6.01-2.489 2.271 0 4.405.884 6.011 2.49l71.087 71.088c1.605 1.605 2.49 3.739 2.49 6.01 0 2.27-.885 4.404-2.49 6.01z"/><path d="m407.18 256 73.51-73.51c20.19-20.191 31.31-47.035 31.31-75.589 0-28.555-11.12-55.399-31.311-75.591-41.68-41.68-109.499-41.68-151.179 0l-73.51 73.511-73.51-73.51c-41.68-41.679-109.499-41.679-151.179 0-20.191 20.19-31.311 47.035-31.311 75.589 0 28.555 11.12 55.399 31.31 75.591l73.51 73.509-73.51 73.51c-20.19 20.192-31.31 47.036-31.31 75.59 0 28.555 11.12 55.399 31.31 75.591 20.84 20.84 48.215 31.259 75.589 31.259 27.375 0 54.75-10.419 75.59-31.259l73.511-73.511 73.51 73.511c20.84 20.84 48.215 31.259 75.59 31.259 27.374 0 54.749-10.419 75.589-31.259 20.191-20.192 31.311-47.036 31.311-75.59 0-28.555-11.12-55.399-31.311-75.591zm-365.263-84.117c-35.832-35.831-35.832-94.135 0-129.966 35.832-35.832 94.134-35.832 129.966 0l73.51 73.51-129.966 129.966zm129.966 298.2c-17.918 17.918-41.447 26.876-64.983 26.874-23.531-.003-47.069-8.96-64.983-26.874-17.357-17.357-26.917-40.435-26.917-64.983 0-24.547 9.56-47.625 26.917-64.982l298.2-298.2c35.833-35.831 94.135-35.832 129.966 0 17.357 17.357 26.917 40.435 26.917 64.983 0 24.547-9.56 47.625-26.917 64.982 0 0-78.827 78.827-78.833 78.833zm298.2 0c-17.918 17.918-41.447 26.876-64.983 26.874-23.531-.003-47.069-8.96-64.983-26.874l-73.51-73.51 129.966-129.966 73.51 73.51c35.832 35.832 35.832 94.136 0 129.966z"/><path d="m173.445 127.696-2.929-2.929c-2.929-2.928-7.678-2.928-10.606 0-2.929 2.93-2.929 7.678 0 10.607l2.929 2.929c1.464 1.464 3.384 2.196 5.303 2.196s3.839-.732 5.303-2.196c2.929-2.93 2.929-7.678 0-10.607z"/><path d="m135.373 159.911c-2.929-2.93-7.678-2.929-10.606.001s-2.928 7.679.002 10.606l2.929 2.928c1.464 1.465 3.383 2.196 5.302 2.196s3.84-.732 5.304-2.197c2.928-2.93 2.928-7.679-.002-10.606z"/><path d="m141.23 95.481c-2.929-2.928-7.678-2.928-10.607 0-2.929 2.93-2.929 7.678 0 10.607l2.929 2.929c1.464 1.464 3.384 2.196 5.303 2.196s3.839-.732 5.303-2.196c2.929-2.93 2.929-7.678 0-10.607z"/><path d="m106.087 130.624c-2.929-2.928-7.678-2.928-10.606 0-2.929 2.93-2.929 7.678 0 10.607l2.929 2.929c1.464 1.464 3.384 2.196 5.303 2.196s3.839-.732 5.303-2.196c2.929-2.93 2.929-7.678 0-10.607z"/><path d="m111.945 66.196c-2.928-2.93-7.677-2.929-10.606-.001-2.929 2.929-2.93 7.678-.001 10.606l2.928 2.929c1.464 1.465 3.384 2.197 5.304 2.197s3.838-.732 5.303-2.196c2.929-2.929 2.93-7.678.001-10.606z"/><path d="m76.801 101.338c-2.929-2.928-7.678-2.928-10.606 0-2.929 2.93-2.929 7.678 0 10.607l2.929 2.929c1.464 1.464 3.384 2.196 5.303 2.196s3.839-.732 5.303-2.196c2.929-2.93 2.929-7.678 0-10.607z"/><path d="m442.876 397.126c-2.929-2.928-7.678-2.928-10.607 0-2.929 2.93-2.929 7.678 0 10.607l2.929 2.929c1.464 1.464 3.384 2.196 5.303 2.196s3.839-.732 5.303-2.196c2.929-2.93 2.929-7.678 0-10.607z"/><path d="m407.734 432.271c-2.929-2.93-7.678-2.929-10.607-.001-2.929 2.929-2.93 7.678-.001 10.607l2.928 2.929c1.464 1.465 3.384 2.197 5.304 2.197 1.919 0 3.838-.733 5.303-2.196 2.929-2.929 2.93-7.678.001-10.607z"/><path d="m413.59 367.84c-2.929-2.928-7.678-2.928-10.606 0-2.929 2.93-2.929 7.678 0 10.607l2.929 2.929c1.464 1.464 3.384 2.196 5.303 2.196s3.839-.732 5.303-2.196c2.929-2.93 2.929-7.678 0-10.607z"/><path d="m378.447 402.984c-2.929-2.928-7.678-2.928-10.607 0-2.929 2.93-2.929 7.678 0 10.607l2.929 2.929c1.464 1.464 3.384 2.196 5.303 2.196s3.839-.732 5.303-2.196c2.929-2.93 2.929-7.678 0-10.607z"/><path d="m384.303 338.555c-2.929-2.93-7.678-2.929-10.606.001s-2.928 7.679.002 10.606l2.929 2.928c1.464 1.465 3.383 2.196 5.302 2.196s3.84-.732 5.304-2.197c2.928-2.93 2.928-7.679-.002-10.607z"/><path d="m349.161 373.698c-2.929-2.928-7.678-2.928-10.606 0-2.929 2.93-2.929 7.678 0 10.607l2.929 2.929c1.464 1.464 3.384 2.196 5.303 2.196s3.839-.732 5.303-2.196c2.929-2.93 2.929-7.678 0-10.607z"/></g></svg>