<svg height="512" viewBox="0 0 128 128" width="512" xmlns="http://www.w3.org/2000/svg"><g><path d="m105.5 37.63a21.679 21.679 0 0 0 -30.253 4.743l-18.337 25.159v-41.132a21.655 21.655 0 0 0 -43.31 0v75.2a21.674 21.674 0 0 0 21.65 21.65 21.432 21.432 0 0 0 11.814-3.527 21.639 21.639 0 0 0 29.312-5.373l33.869-46.467a21.678 21.678 0 0 0 -4.745-30.253zm-70.25-29.38a18.153 18.153 0 0 1 18.16 18.15v35.85h-36.31v-35.85a18.17 18.17 0 0 1 18.15-18.15zm-18.15 93.35v-35.85h36.31v6.584l-12.031 16.506a21.674 21.674 0 0 0 2.74 28.58 17.968 17.968 0 0 1 -8.869 2.33 18.17 18.17 0 0 1 -18.15-18.15zm56.448 10.688a18.154 18.154 0 0 1 -29.341-21.388l15.9-21.819 29.345 21.388zm17.965-24.647-29.341-21.387 15.9-21.819c7.151-9.605 18.6-8.732 25.364-3.977a18.175 18.175 0 0 1 3.977 25.364z"/><path d="m99.827 69.024a1.75 1.75 0 0 0 -2.445.383l-3.36 4.61a1.75 1.75 0 0 0 2.828 2.061l3.36-4.609a1.75 1.75 0 0 0 -.383-2.445z"/></g></svg>